HIERARCHY
ROOT Pelvis
{
	OFFSET 0.000000 0.000000 0.000000
	CHANNELS 6 Xposition Yposition Zposition Xrotation Yrotation Zrotation
	JOINT LeftUpLeg_virtual
	{
		OFFSET 0.000000 0.000000 0.000000
		CHANNELS 3 Xrotation Yrotation Zrotation
		JOINT LeftUpLeg
		{
			OFFSET 18.735201 -5.666702 -4.541200
			CHANNELS 3 Xrotation Yrotation Zrotation
			JOINT LeftLeg
			{
				OFFSET -0.021200 -31.938179 0.493100
				CHANNELS 3 Xrotation Yrotation Zrotation
				JOINT LeftFoot
				{
					OFFSET 0.021200 -31.938179 -4.336299
					CHANNELS 3 Xrotation Yrotation Zrotation
					JOINT LeftToeBase
					{
						OFFSET 0.943001 -26.722000 15.023500
						CHANNELS 3 Xrotation Yrotation Zrotation
						End Site
						{
							OFFSET 0 0 0
						}
					}
				}
			}
		}
	}
	JOINT RightUpLeg_virtual
	{
		OFFSET 0.000000 0.000000 0.000000
		CHANNELS 3 Xrotation Yrotation Zrotation
		JOINT RightUpLeg
		{
			OFFSET -18.735201 -5.666702 -4.541200
			CHANNELS 3 Xrotation Yrotation Zrotation
			JOINT RightLeg
			{
				OFFSET 0.018946 -31.938133 0.493100
				CHANNELS 3 Xrotation Yrotation Zrotation
				JOINT RightFoot
				{
					OFFSET -0.018946 -31.938126 -4.336299
					CHANNELS 3 Xrotation Yrotation Zrotation
					JOINT RightToeBase
					{
						OFFSET -0.943001 -26.722004 15.023500
						CHANNELS 3 Xrotation Yrotation Zrotation
						End Site
						{
							OFFSET 0 0 0
						}
					}
				}
			}
		}
	}
	JOINT Hips_virtual
	{
		OFFSET 0.000000 0.000000 0.000000
		CHANNELS 3 Xrotation Yrotation Zrotation
		JOINT Hips
		{
			OFFSET -0.000000 -0.000000 -0.000000
			CHANNELS 3 Xrotation Yrotation Zrotation
			JOINT Spine
			{
				OFFSET 0.000000 10.199997 -0.299500
				CHANNELS 3 Xrotation Yrotation Zrotation
				JOINT Spine1
				{
					OFFSET 0.000000 11.900002 -1.516600
					CHANNELS 3 Xrotation Yrotation Zrotation
					JOINT Spine2
					{
						OFFSET 0.000000 13.600006 -2.842500
						CHANNELS 3 Xrotation Yrotation Zrotation
						JOINT Neck_virtual
						{
							OFFSET 0.000000 0.000000 0.000000
							CHANNELS 3 Xrotation Yrotation Zrotation
							JOINT Neck
							{
								OFFSET 0.000000 9.624100 -2.890100
								CHANNELS 3 Xrotation Yrotation Zrotation
								JOINT Head
								{
									OFFSET 0.000000 14.068802 -1.351900
									CHANNELS 3 Xrotation Yrotation Zrotation
									End Site
									{
										OFFSET 0 0 0
									}
								}
							}
						}
						JOINT LeftShoulder_virtual
						{
							OFFSET 0.000000 0.000000 0.000000
							CHANNELS 3 Xrotation Yrotation Zrotation
							JOINT LeftShoulder
							{
								OFFSET 15.263000 10.923401 -0.547700
								CHANNELS 3 Xrotation Yrotation Zrotation
								JOINT LeftArm
								{
									OFFSET 25.438599 -2.830597 -13.032500
									CHANNELS 3 Xrotation Yrotation Zrotation
									JOINT LeftForeArm
									{
										OFFSET 29.960503 0.000000 0.000000
										CHANNELS 3 Xrotation Yrotation Zrotation
										JOINT LeftHand
										{
											OFFSET 27.849251 0.000000 0.000000
											CHANNELS 3 Xrotation Yrotation Zrotation
											End Site
											{
												OFFSET 0 0 0
											}
										}
									}
								}
							}
						}
						JOINT RightShoulder_virtual
						{
							OFFSET 0.000000 0.000000 0.000000
							CHANNELS 3 Xrotation Yrotation Zrotation
							JOINT RightShoulder
							{
								OFFSET -15.263000 10.923401 -0.547700
								CHANNELS 3 Xrotation Yrotation Zrotation
								JOINT RightArm
								{
									OFFSET -25.438599 -2.830597 -13.032500
									CHANNELS 3 Xrotation Yrotation Zrotation
									JOINT RightForeArm
									{
										OFFSET -29.960503 0.000000 0.000000
										CHANNELS 3 Xrotation Yrotation Zrotation
										JOINT RightHand
										{
											OFFSET -27.849251 0.000000 0.000000
											CHANNELS 3 Xrotation Yrotation Zrotation
											End Site
											{
												OFFSET 0 0 0
											}
										}
									}
								}
							}
						}
					}
				}
			}
		}
	}
}
MOTION
Frames: 8
Frame Time: 0.03333333
0.309494 93.932533 11.860260 0.000000 0.000000 0.000000 -1.890601 -8.812106 -3.639797 -38.539045 -13.625343 -5.321210 52.084765 1.937359 2.873831 36.362028 0.971742 -15.428021 0.000000 0.000000 0.000000 -1.717219 -7.853705 -3.479891 -21.492312 -12.454897 -1.101987 24.627007 4.614829 1.689645 35.106776 11.094319 -6.185173 0.000000 0.000000 0.000000 -2.076488 -7.715756 -3.550988 -0.988655 0.031755 0.149819 6.841718 1.799456 5.235307 1.297986 2.878676 -2.542761 0.000000 0.000000 0.000000 -6.466768 0.444916 -0.304449 0.851073 0.099236 0.799149 0.000000 0.000000 0.000000 -2.763515 0.086796 1.077167 -2.556924 -2.314006 -6.152207 3.872597 -3.955255 -63.516074 13.474070 -12.663623 -8.846458 0.000000 0.000000 0.000000 -4.996359 -0.033015 -1.140746 -0.356027 17.791586 -0.768548 6.908133 3.443281 82.202911 16.049297 28.402247 -11.575571 0.000000 0.000000 0.000000 
0.083431 94.088623 14.258755 0.000000 0.000000 0.000000 -1.863972 -9.093903 -3.575252 -38.507531 -15.473247 -5.003042 46.894142 -0.228976 3.055068 33.673645 -3.329685 -18.944817 0.000000 0.000000 0.000000 -1.745315 -8.028048 -3.781347 -22.020859 -13.002950 -2.129273 27.549544 6.123453 1.878815 39.038185 13.164979 -3.589077 0.000000 0.000000 0.000000 -1.957944 -6.852190 -3.687838 -0.961992 0.014257 0.149728 7.281327 1.981680 5.254365 1.139800 2.976596 -2.465183 0.000000 0.000000 0.000000 -6.310945 0.445686 -0.225542 0.946890 0.101424 0.784114 0.000000 0.000000 0.000000 -2.813408 0.052336 1.060117 -2.624138 -2.111315 -6.402461 4.061868 -4.137913 -63.661427 13.326000 -13.377974 -8.859359 0.000000 0.000000 0.000000 -5.063437 0.029047 -0.820489 -0.261284 17.823172 -0.642625 5.777686 4.406222 80.756277 15.840616 28.720532 -11.053352 0.000000 0.000000 0.000000 
-0.178544 94.203728 17.144665 0.000000 0.000000 0.000000 -1.109259 -9.071497 -3.920510 -39.040108 -15.387790 -3.628588 38.487628 -0.431476 1.726146 35.555547 -4.105468 -19.408829 0.000000 0.000000 0.000000 -1.528635 -7.908263 -4.342740 -22.462011 -14.083577 -2.761225 31.271669 7.723931 1.855826 41.918391 15.102849 -2.078352 0.000000 0.000000 0.000000 -1.304217 -6.232961 -4.112211 -0.880101 -0.007485 0.129123 7.815412 2.194751 5.696155 0.630981 3.135892 -2.089646 0.000000 0.000000 0.000000 -6.362350 0.474272 0.012099 0.891650 0.195674 0.736397 0.000000 0.000000 0.000000 -3.265254 0.103771 1.236407 -2.610475 -1.317082 -7.015587 4.423014 -3.967230 -64.164587 13.021091 -13.920000 -8.885628 0.000000 0.000000 0.000000 -5.231517 0.094692 -0.351710 0.006058 17.647373 -0.940901 4.808412 5.837924 79.394112 15.747168 29.813065 -10.345423 0.000000 0.000000 0.000000 
-0.328483 94.080612 19.764568 0.000000 0.000000 0.000000 0.057914 -8.573377 -4.498034 -40.502366 -13.658846 -1.906011 29.298841 1.224715 -0.054774 41.602757 -1.341526 -16.963958 0.000000 0.000000 0.000000 -1.048816 -7.496939 -4.945537 -20.982316 -14.761779 -2.205936 33.885306 8.488585 1.536288 40.063117 15.450844 -2.205258 0.000000 0.000000 0.000000 -0.260380 -5.953165 -4.644739 -0.810970 -0.007538 0.083039 8.159410 2.368863 6.426539 -0.105512 3.324932 -1.528643 0.000000 0.000000 0.000000 -6.595001 0.512704 0.354990 0.689979 0.386187 0.679862 0.000000 0.000000 0.000000 -4.022694 0.207332 1.548851 -2.501690 0.020102 -7.756251 5.200712 -3.646656 -64.679467 12.552389 -14.132758 -8.968041 0.000000 0.000000 0.000000 -5.514243 0.144997 0.145972 0.392345 17.127461 -1.593850 4.201823 7.406106 78.465486 15.720842 31.484020 -9.459975 0.000000 0.000000 0.000000 
-0.249371 93.488770 22.371912 0.000000 0.000000 0.000000 1.248832 -8.047817 -5.058638 -42.318110 -11.470149 -1.077239 20.877803 3.136030 -1.074401 48.480908 3.803515 -13.307275 0.000000 0.000000 0.000000 -0.377178 -7.271105 -5.354303 -16.905686 -14.650307 -0.756135 34.579294 8.483016 0.896487 33.425139 14.654053 -3.202438 0.000000 0.000000 0.000000 0.941503 -6.231179 -5.027613 -0.758317 0.002475 0.010363 8.156767 2.376806 7.143692 -0.965789 3.504708 -0.966899 0.000000 0.000000 0.000000 -6.930490 0.551105 0.724064 0.400608 0.662022 0.629412 0.000000 0.000000 0.000000 -4.861448 0.328389 1.923659 -2.297456 1.658154 -8.310502 6.449378 -3.437491 -64.942545 11.979365 -13.818914 -9.145645 0.000000 0.000000 0.000000 -5.884516 0.176358 0.527308 0.840303 16.275757 -2.464339 3.620920 8.616576 78.106143 15.703950 33.513771 -8.382002 0.000000 0.000000 0.000000 
-0.073123 92.297943 25.089998 0.000000 0.000000 0.000000 2.177315 -8.023052 -5.356498 -42.673936 -9.496120 -1.586712 13.597602 3.891019 -1.443193 52.662463 8.396796 -10.176352 0.000000 0.000000 0.000000 0.363304 -7.406762 -5.421658 -11.633608 -13.898841 0.518808 34.180497 8.338329 -0.155610 24.703944 13.862452 -4.012112 0.000000 0.000000 0.000000 1.971230 -6.948018 -5.101296 -0.749720 -0.016564 -0.074197 7.648746 2.184639 7.542917 -1.704442 3.643001 -0.554837 0.000000 0.000000 0.000000 -7.251246 0.579584 1.014497 0.101808 1.010962 0.586504 0.000000 0.000000 0.000000 -5.493373 0.439116 2.275663 -2.030316 3.184098 -8.562167 7.856262 -3.725718 -64.912082 11.361087 -12.862338 -9.391670 0.000000 0.000000 0.000000 -6.273110 0.191886 0.720270 1.340122 15.222760 -3.442478 2.716413 9.287767 78.407136 15.541243 35.100783 -7.008594 0.000000 0.000000 0.000000 
0.168727 90.838486 28.251118 0.000000 0.000000 0.000000 2.740336 -8.302687 -5.237165 -41.477765 -7.456622 -2.880346 8.088430 2.758197 -2.299280 52.963391 9.709827 -8.312269 0.000000 0.000000 0.000000 0.989532 -7.559587 -5.148376 -6.492520 -12.428674 1.235885 33.687681 8.396171 -1.527328 16.489118 13.390928 -4.036187 0.000000 0.000000 0.000000 2.611030 -7.513398 -4.727373 -0.764035 -0.049279 -0.106997 6.658216 1.830017 7.381159 -2.104185 3.768329 -0.337960 0.000000 0.000000 0.000000 -7.374787 0.612386 1.171749 -0.131323 1.418247 0.539892 0.000000 0.000000 0.000000 -5.865942 0.534015 2.543507 -1.762933 4.354724 -8.629159 8.899090 -4.614631 -64.681673 10.715833 -11.167663 -9.667555 0.000000 0.000000 0.000000 -6.564455 0.209801 0.748879 1.854036 14.093740 -4.382972 1.504645 9.535946 79.267672 15.181873 35.647143 -5.295757 0.000000 0.000000 0.000000 
0.546806 89.261894 31.750698 0.000000 0.000000 0.000000 2.808210 -8.492255 -4.736875 -40.507700 -4.984954 -4.083337 7.029279 0.372475 -4.584528 50.461171 8.489214 -6.855067 0.000000 0.000000 0.000000 1.389252 -7.515022 -4.627681 -1.672357 -10.384252 1.637140 33.019730 8.324818 -2.741314 8.709338 12.881851 -3.484773 0.000000 0.000000 0.000000 2.761465 -7.715932 -4.049435 -0.792978 -0.054539 -0.086763 5.287034 1.387908 6.713803 -2.157607 3.912533 -0.319150 0.000000 0.000000 0.000000 -7.255166 0.670233 1.180846 -0.250704 1.845274 0.468861 0.000000 0.000000 0.000000 -5.924097 0.654956 2.716566 -1.517511 5.024219 -8.598906 9.319311 -6.035038 -64.509238 10.059219 -8.928825 -9.883314 0.000000 0.000000 0.000000 -6.642976 0.247946 0.681958 2.385563 13.071485 -5.140626 0.350762 9.642527 80.402357 14.629304 34.857867 -3.302472 0.000000 0.000000 0.000000 
